<svg width="440" height="127" viewBox="0 0 440 127" fill="none" xmlns="http://www.w3.org/2000/svg">
<path d="M406.857 0.000412749H33.1621C31.8867 0.000412749 30.6266 0.000412749 29.3546 0.00676273C28.2898 0.0131127 27.2335 0.0315594 26.1584 0.0470851C23.823 0.0721732 21.493 0.259734 19.1888 0.608138C16.8878 0.964126 14.6589 1.63526 12.5774 2.59886C10.4985 3.5706 8.59895 4.83328 6.94766 6.34109C5.2877 7.84466 3.90399 9.58258 2.84974 11.488C1.79259 13.3897 1.05956 15.4275 0.67596 17.5311C0.288717 19.632 0.0803374 21.7571 0.0526925 23.8874C0.0204162 24.8608 0.0170077 25.8375 0 26.8111V100.199C0.0170077 101.184 0.0204162 102.14 0.0526925 103.126C0.0803459 105.256 0.288725 107.381 0.67596 109.482C1.0585 111.586 1.79157 113.625 2.84974 115.528C3.90351 117.427 5.28741 119.158 6.94766 120.653C8.59269 122.168 10.4935 123.431 12.5774 124.396C14.6588 125.362 16.8875 126.037 19.1888 126.398C21.4934 126.744 23.8231 126.932 26.1584 126.96C27.2335 126.981 28.2898 126.994 29.3546 126.994C30.6266 127 31.8868 127 33.1621 127H406.857C408.107 127 409.377 127 410.627 126.994C411.687 126.994 412.773 126.981 413.833 126.96C416.164 126.933 418.489 126.745 420.789 126.398C423.098 126.034 425.335 125.359 427.426 124.396C429.508 123.431 431.407 122.167 433.051 120.653C434.707 119.152 436.094 117.423 437.161 115.528C438.211 113.624 438.937 111.585 439.314 109.482C439.702 107.381 439.917 105.256 439.959 103.126C439.973 102.14 439.973 101.184 439.973 100.199C440 99.0452 440 97.898 440 96.7258V30.2775C440 29.1148 440 27.9614 439.973 26.8111C439.973 25.8375 439.973 24.8608 439.959 23.8873C439.917 21.7568 439.702 19.6321 439.314 17.5309C438.936 15.4286 438.21 13.3909 437.161 11.4879C435.014 7.66864 431.609 4.55978 427.426 2.59857C425.335 1.63733 423.098 0.966372 420.789 0.607852C418.49 0.257913 416.164 0.0702872 413.833 0.0466406C412.773 0.0311466 411.687 0.0125412 410.627 0.00634998C409.377 0 408.107 0 406.857 0V0.000412749Z" fill="#A6A6A6"/>
<path d="M29.3715 124.222C28.3119 124.222 27.2778 124.21 26.2264 124.188C24.0484 124.162 21.8755 123.989 19.7254 123.67C17.7207 123.355 15.7786 122.769 13.9632 121.931C12.1645 121.099 10.5239 120.01 9.10437 118.703C7.66424 117.411 6.46528 115.914 5.55498 114.269C4.63464 112.613 3.99772 110.839 3.66639 109.007C3.30858 107.039 3.115 105.049 3.0873 103.054C3.06524 102.385 3.03638 100.155 3.03638 100.155V26.8111C3.03638 26.8111 3.06712 24.6159 3.08747 23.971C3.11399 21.9792 3.30645 19.9922 3.66316 18.0272C3.99512 16.1905 4.63255 14.4109 5.55338 12.75C6.46033 11.1064 7.65263 9.6075 9.08405 8.31153C10.5139 7.00325 12.1597 5.90782 13.9615 5.06519C15.7727 4.2298 17.7111 3.64763 19.7118 3.33819C21.8689 3.01614 24.0494 2.84202 26.235 2.8173L29.3733 2.77853H410.61L413.786 2.81886C415.951 2.84235 418.112 3.01491 420.249 3.33508C422.27 3.6484 424.229 4.23463 426.061 5.0745C429.67 6.77263 432.607 9.45923 434.46 12.7577C435.366 14.4072 435.994 16.1722 436.322 17.9931C436.683 19.9743 436.885 21.9769 436.926 23.9849C436.936 24.8841 436.936 25.8499 436.936 26.8111C436.964 28.0017 436.964 29.135 436.964 30.2775V96.7258C436.964 97.8793 436.964 99.0049 436.936 100.14C436.936 101.172 436.936 102.118 436.923 103.091C436.882 105.064 436.683 107.03 436.328 108.976C436.004 110.821 435.37 112.609 434.45 114.278C433.533 115.905 432.341 117.39 430.918 118.678C429.497 119.992 427.854 121.088 426.051 121.924C424.224 122.769 422.268 123.357 420.249 123.67C418.099 123.991 415.926 124.164 413.748 124.188C412.729 124.21 411.663 124.222 410.627 124.222L406.857 124.228L29.3715 124.222Z" fill="black"/>
<path d="M86.1576 64.4549C86.195 61.8048 86.9661 59.2065 88.3992 56.9016C89.8322 54.5967 91.8807 52.6601 94.3539 51.2721C92.7827 49.2237 90.71 47.538 88.3003 46.3488C85.8906 45.1596 83.2103 44.4997 80.4724 44.4215C74.6319 43.8619 68.9698 47.6118 65.9936 47.6118C62.9598 47.6118 58.3775 44.4771 53.4431 44.5697C50.2513 44.6639 47.1407 45.5111 44.4144 47.029C41.688 48.5468 39.4388 50.6834 37.886 53.2307C31.1594 63.8619 36.1768 79.4862 42.6203 88.0796C45.8441 92.2876 49.6118 96.988 54.5418 96.8213C59.3661 96.6387 61.1678 94.0131 66.9912 94.0131C72.7604 94.0131 74.4509 96.8213 79.4808 96.7154C84.6575 96.6387 87.9191 92.4887 91.0298 88.2409C93.346 85.2425 95.1284 81.9287 96.3108 78.4222C93.3033 77.261 90.7368 75.3173 88.9313 72.8335C87.1258 70.3497 86.1611 67.4357 86.1576 64.4549V64.4549Z" fill="white"/>
<path d="M76.6569 38.7699C79.4794 35.6768 80.87 31.7011 80.5332 27.6872C76.221 28.1006 72.2378 29.982 69.3771 32.9564C67.9784 34.4095 66.9072 36.1 66.2246 37.9312C65.5421 39.7625 65.2616 41.6986 65.3992 43.6288C67.5561 43.6491 69.6899 43.2223 71.6399 42.3807C73.5899 41.539 75.3053 40.3044 76.6569 38.7699Z" fill="white"/>
<path d="M124.011 46.6781V30.4109H117.483V27.7336H133.749V30.4109H127.234V46.6781H124.011Z" fill="white"/>
<path d="M148.738 42.8179C148.318 44.1245 147.408 45.2547 146.168 46.0109C144.927 46.767 143.435 47.1008 141.952 46.954C140.92 46.9789 139.894 46.7985 138.947 46.4253C137.999 46.0522 137.151 45.4952 136.463 44.7931C135.775 44.091 135.262 43.2605 134.96 42.3594C134.659 41.4583 134.576 40.508 134.717 39.5746C134.58 38.6384 134.664 37.6861 134.965 36.7823C135.266 35.8784 135.776 35.0441 136.461 34.3359C137.145 33.6276 137.989 33.0619 138.934 32.6771C139.879 32.2923 140.903 32.0973 141.938 32.1053C146.296 32.1053 148.925 34.8231 148.925 39.3126V40.297H137.866V40.4551C137.817 40.9798 137.889 41.5079 138.078 42.0056C138.266 42.5032 138.566 42.9595 138.959 43.3451C139.351 43.7307 139.828 44.0372 140.358 44.2448C140.888 44.4525 141.46 44.5567 142.037 44.5509C142.776 44.6319 143.525 44.5104 144.188 44.2017C144.852 43.8931 145.4 43.4113 145.763 42.8176L148.738 42.8179ZM137.866 38.2104H145.776C145.815 37.7306 145.744 37.2486 145.566 36.7955C145.389 36.3424 145.11 35.9281 144.747 35.5793C144.384 35.2305 143.945 34.9549 143.458 34.7702C142.972 34.5855 142.448 34.4958 141.921 34.5068C141.386 34.5006 140.856 34.5922 140.361 34.7762C139.866 34.9602 139.416 35.2328 139.038 35.578C138.66 35.9231 138.361 36.3339 138.16 36.786C137.959 37.2381 137.859 37.7224 137.866 38.2104H137.866ZM140.08 29.9908L143.691 25.4748H147.315L143.273 29.9908H140.08Z" fill="white"/>
<path d="M153.218 26.8003H156.309V46.6781H153.218V26.8003Z" fill="white"/>
<path d="M174.626 42.8179C174.206 44.1245 173.296 45.2547 172.056 46.0109C170.815 46.767 169.323 47.1008 167.84 46.954C166.808 46.9789 165.783 46.7985 164.835 46.4253C163.887 46.0522 163.04 45.4952 162.351 44.7931C161.663 44.091 161.15 43.2605 160.849 42.3594C160.547 41.4583 160.464 40.508 160.605 39.5746C160.468 38.6384 160.553 37.6861 160.853 36.7823C161.154 35.8784 161.664 35.0441 162.349 34.3359C163.034 33.6276 163.877 33.0619 164.822 32.6771C165.767 32.2923 166.792 32.0973 167.826 32.1053C172.184 32.1053 174.813 34.8231 174.813 39.3126V40.297H163.754V40.4551C163.705 40.9798 163.778 41.5079 163.966 42.0056C164.154 42.5032 164.454 42.9595 164.847 43.3451C165.24 43.7307 165.716 44.0372 166.246 44.2448C166.776 44.4525 167.348 44.5567 167.925 44.5509C168.664 44.6319 169.413 44.5104 170.077 44.2017C170.74 43.8931 171.288 43.4113 171.651 42.8176L174.626 42.8179ZM163.754 38.2104H171.664C171.703 37.7306 171.632 37.2486 171.455 36.7955C171.277 36.3424 170.998 35.9281 170.635 35.5793C170.272 35.2305 169.833 34.9549 169.347 34.7702C168.86 34.5855 168.336 34.4958 167.809 34.5068C167.275 34.5006 166.744 34.5923 166.249 34.7762C165.754 34.9602 165.304 35.2328 164.926 35.578C164.548 35.9231 164.25 36.3339 164.048 36.786C163.847 37.2381 163.747 37.7224 163.754 38.2104ZM165.968 29.9908L169.579 25.4748H173.203L169.161 29.9908H165.968Z" fill="white"/>
<path d="M189.218 37.0539C189.021 36.3125 188.539 35.6601 187.861 35.2147C187.182 34.7694 186.352 34.5606 185.519 34.6261C182.931 34.6261 181.348 36.4369 181.348 39.4832C181.348 42.5822 182.944 44.4333 185.519 44.4333C186.343 44.5204 187.174 44.3297 187.855 43.8969C188.537 43.4641 189.021 42.819 189.218 42.083H192.224C192.025 43.5307 191.214 44.8502 189.965 45.7602C188.716 46.6702 187.126 47.0986 185.536 46.954C184.489 46.9842 183.447 46.8052 182.483 46.4295C181.52 46.0537 180.658 45.4904 179.958 44.7788C179.258 44.0672 178.737 43.2246 178.43 42.3099C178.124 41.3952 178.041 40.4305 178.186 39.4833C178.048 38.543 178.137 37.5867 178.446 36.681C178.755 35.7753 179.277 34.9421 179.975 34.2396C180.674 33.5371 181.531 32.9821 182.489 32.6135C183.446 32.2449 184.48 32.0715 185.519 32.1055C187.122 31.9706 188.72 32.4123 189.972 33.3365C191.225 34.2607 192.032 35.5944 192.224 37.054L189.218 37.0539Z" fill="white"/>
<path d="M196.327 26.8003H199.39V34.6789H199.635C200.046 33.8555 200.725 33.1679 201.579 32.7096C202.434 32.2513 203.422 32.0446 204.41 32.1178C205.168 32.0801 205.926 32.1957 206.63 32.4562C207.333 32.7166 207.965 33.1157 208.48 33.6247C208.996 34.1338 209.381 34.7404 209.61 35.4012C209.839 36.062 209.905 36.7608 209.804 37.4477V46.6781H206.71V38.1437C206.71 35.8602 205.545 34.7036 203.361 34.7036C202.83 34.6639 202.295 34.7305 201.795 34.899C201.295 35.0674 200.841 35.3336 200.466 35.6788C200.09 36.0241 199.802 36.44 199.621 36.8977C199.44 37.3553 199.37 37.8435 199.417 38.3282V46.678H196.327L196.327 26.8003Z" fill="white"/>
<path d="M213.69 42.6349C213.69 40.0614 215.789 38.5778 219.515 38.3669L223.757 38.1437V36.9097C223.757 35.3997 222.664 34.547 220.551 34.547C218.825 34.547 217.63 35.1253 217.287 36.1361H214.294C214.61 33.6804 217.141 32.1053 220.694 32.1053C224.62 32.1053 226.833 33.8897 226.833 36.9097V46.678H223.859V44.6689H223.615C223.118 45.3896 222.421 45.9771 221.595 46.3715C220.768 46.7658 219.842 46.9529 218.91 46.9136C218.253 46.976 217.588 46.912 216.96 46.7256C216.331 46.5393 215.752 46.2347 215.26 45.8316C214.768 45.4285 214.374 44.9357 214.104 44.3851C213.834 43.8345 213.692 43.2383 213.69 42.6349V42.6349ZM223.757 41.4132V40.218L219.933 40.4413C217.776 40.573 216.798 41.2427 216.798 42.5031C216.798 43.7898 218.02 44.5386 219.702 44.5386C220.195 44.5842 220.692 44.5388 221.165 44.4051C221.638 44.2715 222.077 44.0524 222.455 43.7608C222.834 43.4692 223.144 43.1111 223.368 42.7078C223.591 42.3045 223.724 41.8643 223.757 41.4133L223.757 41.4132Z" fill="white"/>
<path d="M231.673 32.3813H234.648V34.5734H234.879C235.212 33.8125 235.801 33.1674 236.561 32.731C237.32 32.2945 238.212 32.089 239.108 32.1441C239.571 32.1384 240.033 32.1779 240.487 32.2619V35.0464C239.92 34.9358 239.341 34.8786 238.761 34.8759C238.252 34.8341 237.738 34.8901 237.253 35.0403C236.769 35.1906 236.324 35.4317 235.947 35.7482C235.571 36.0648 235.271 36.4497 235.067 36.8783C234.863 37.3069 234.76 37.7696 234.764 38.2369V46.6782H231.673L231.673 32.3813Z" fill="white"/>
<path d="M243.33 48.109H246.492C246.754 49.1461 248.061 49.8159 250.147 49.8159C252.721 49.8159 254.246 48.6997 254.246 46.8098V44.0658H254.015C253.53 44.8339 252.822 45.4648 251.969 45.8885C251.117 46.3123 250.152 46.5126 249.182 46.4672C245.184 46.4672 242.712 43.6457 242.712 39.3653C242.712 35.0061 245.211 32.1441 249.213 32.1441C250.207 32.1125 251.191 32.3309 252.059 32.7755C252.926 33.22 253.643 33.8736 254.131 34.6649H254.375V32.3813H257.337V46.7958C257.337 50.0653 254.532 52.1396 250.102 52.1396C246.19 52.1398 243.659 50.5383 243.33 48.109ZM254.304 39.3514C254.304 36.5034 252.691 34.6788 250.058 34.6788C247.399 34.6788 245.904 36.5035 245.904 39.3514C245.904 42.2008 247.399 44.0255 250.058 44.0255C252.708 44.0255 254.304 42.2148 254.304 39.3513V39.3514Z" fill="white"/>
<path d="M275.505 42.8178C275.085 44.1244 274.175 45.2547 272.935 46.0108C271.694 46.7669 270.202 47.1008 268.719 46.9539C267.687 46.9788 266.662 46.7984 265.714 46.4253C264.766 46.0521 263.919 45.4951 263.23 44.793C262.542 44.0909 262.029 43.2605 261.728 42.3593C261.426 41.4582 261.343 40.508 261.484 39.5746C261.347 38.6383 261.431 37.686 261.732 36.7822C262.033 35.8784 262.543 35.0441 263.228 34.3358C263.912 33.6276 264.756 33.0619 265.701 32.677C266.646 32.2922 267.67 32.0972 268.705 32.1053C273.063 32.1053 275.692 34.8231 275.692 39.3125V40.2969H264.633V40.4551C264.584 40.9797 264.657 41.5078 264.845 42.0055C265.033 42.5032 265.333 42.9594 265.726 43.3451C266.119 43.7307 266.595 44.0371 267.125 44.2448C267.655 44.4524 268.227 44.5566 268.804 44.5508C269.543 44.6318 270.292 44.5103 270.956 44.2017C271.619 43.893 272.167 43.4112 272.53 42.8176L275.505 42.8178ZM264.633 38.2103H272.543C272.582 37.7305 272.511 37.2486 272.334 36.7954C272.156 36.3423 271.877 35.928 271.514 35.5792C271.151 35.2304 270.712 34.9548 270.225 34.7701C269.739 34.5854 269.215 34.4957 268.688 34.5067C268.154 34.5006 267.623 34.5922 267.128 34.7762C266.633 34.9602 266.183 35.2328 265.805 35.5779C265.427 35.9231 265.129 36.3338 264.927 36.7859C264.726 37.238 264.626 37.7224 264.633 38.2103H264.633Z" fill="white"/>
<path d="M279.843 32.3813H282.818V34.5734H283.049C283.382 33.8125 283.971 33.1674 284.731 32.731C285.49 32.2945 286.382 32.089 287.278 32.1441C287.741 32.1384 288.203 32.1779 288.657 32.2619V35.0464C288.09 34.9358 287.511 34.8786 286.931 34.8759C286.421 34.8341 285.908 34.8901 285.423 35.0403C284.938 35.1905 284.494 35.4316 284.117 35.7482C283.74 36.0647 283.441 36.4496 283.237 36.8782C283.033 37.3068 282.93 37.7696 282.933 38.2369V46.6782H279.843V32.3813Z" fill="white"/>
<path d="M299.794 39.5235C299.794 35.006 302.338 32.1441 306.295 32.1441C307.274 32.1029 308.245 32.317 309.095 32.7611C309.946 33.2053 310.64 33.8613 311.098 34.6524H311.328V26.8003H314.419V46.6781H311.458V44.4193H311.213C310.72 45.2051 310.002 45.8529 309.135 46.2926C308.268 46.7322 307.286 46.947 306.295 46.9137C302.311 46.9137 299.794 44.0519 299.794 39.5235ZM302.987 39.5235C302.987 42.5559 304.553 44.3806 307.171 44.3806C309.776 44.3806 311.386 42.5295 311.386 39.5359C311.386 36.5562 309.759 34.6788 307.171 34.6788C304.569 34.6788 302.987 36.516 302.987 39.5235H302.987Z" fill="white"/>
<path d="M318.597 42.6349C318.597 40.0614 320.696 38.5778 324.422 38.3669L328.664 38.1437V36.9097C328.664 35.3997 327.571 34.547 325.458 34.547C323.733 34.547 322.537 35.1253 322.194 36.1361H319.202C319.518 33.6804 322.048 32.1053 325.601 32.1053C329.527 32.1053 331.742 33.8897 331.742 36.9097V46.678H328.766V44.6689H328.522C328.025 45.3896 327.328 45.9771 326.502 46.3715C325.675 46.7658 324.749 46.9529 323.818 46.9136C323.16 46.976 322.496 46.912 321.867 46.7256C321.238 46.5393 320.659 46.2347 320.167 45.8316C319.676 45.4284 319.282 44.9357 319.011 44.3851C318.741 43.8345 318.6 43.2383 318.597 42.6349ZM328.664 41.4132V40.218L324.84 40.4412C322.683 40.573 321.705 41.2427 321.705 42.5031C321.705 43.7898 322.928 44.5386 324.609 44.5386C325.102 44.5841 325.599 44.5387 326.072 44.4051C326.545 44.2714 326.984 44.0523 327.363 43.7607C327.741 43.4691 328.051 43.111 328.275 42.7078C328.498 42.3045 328.631 41.8643 328.664 41.4133V41.4132Z" fill="white"/>
<path d="M336.582 32.3814H339.557V34.6525H339.788C340.18 33.8368 340.841 33.153 341.679 32.6964C342.516 32.2398 343.489 32.0332 344.462 32.1054C345.224 32.0531 345.989 32.158 346.701 32.4123C347.412 32.6666 348.052 33.0638 348.573 33.5745C349.093 34.0851 349.481 34.6962 349.708 35.3624C349.935 36.0286 349.995 36.7328 349.883 37.4229V46.6779H346.792V38.1314C346.792 35.8339 345.698 34.6913 343.412 34.6913C342.895 34.6693 342.378 34.7497 341.898 34.9269C341.418 35.1042 340.986 35.3741 340.63 35.7183C340.275 36.0624 340.006 36.4725 339.84 36.9206C339.675 37.3687 339.618 37.8441 339.673 38.3143V46.6781H336.582V32.3814Z" fill="white"/>
<path d="M360.388 32.1053C363.91 32.1053 366.213 33.6014 366.515 36.1222H363.55C363.265 35.0726 362.141 34.4029 360.388 34.4029C358.663 34.4029 357.352 35.1501 357.352 36.2663C357.352 37.1204 358.143 37.6585 359.841 38.0135L362.443 38.5638C365.422 39.1948 366.818 40.3637 366.818 42.4644C366.818 45.1557 364.07 46.954 360.33 46.954C356.604 46.954 354.176 45.4177 353.901 42.8845H356.995C357.262 43.4874 357.742 43.9911 358.36 44.3147C358.978 44.6382 359.697 44.763 360.402 44.6688C362.327 44.6688 363.696 43.8814 363.696 42.7387C363.696 41.8861 362.963 41.3342 361.393 40.9931L358.663 40.4149C355.684 39.7715 354.305 38.5514 354.305 36.4244C354.305 33.8897 356.849 32.1053 360.388 32.1053Z" fill="white"/>
<path d="M122.421 57.3626H128.888V96.7911H122.421V57.3626Z" fill="white"/>
<path d="M136.68 71.7896L140.212 57.3626H146.496L142.216 71.7896H136.68Z" fill="white"/>
<path d="M170.934 86.1344H154.471L150.518 96.7911H143.544L159.138 57.3626H166.383L181.976 96.7911H174.884L170.934 86.1344ZM156.176 81.2169H169.226L162.793 63.9204H162.613L156.176 81.2169Z" fill="white"/>
<path d="M215.65 82.42C215.65 91.3527 210.412 97.0919 202.508 97.0919C200.506 97.1875 198.515 96.7665 196.763 95.877C195.011 94.9876 193.568 93.6657 192.601 92.0627H192.451V106.301H185.987V68.0441H192.244V72.8252H192.363C193.375 71.2298 194.842 69.9148 196.607 69.0199C198.373 68.1251 200.371 67.6839 202.389 67.7433C210.381 67.7434 215.65 73.5104 215.65 82.42ZM209.006 82.42C209.006 76.5986 205.711 72.7725 200.684 72.7725C195.746 72.7725 192.424 76.6793 192.424 82.42C192.424 88.2119 195.746 92.0907 200.684 92.0907C205.711 92.0906 209.006 88.2924 209.006 82.42V82.42Z" fill="white"/>
<path d="M250.306 82.42C250.306 91.3527 245.069 97.0919 237.165 97.0919C235.163 97.1875 233.172 96.7665 231.419 95.877C229.667 94.9876 228.225 93.6657 227.257 92.0627H227.108V106.301H220.646V68.0441H226.901V72.8252H227.019C228.031 71.2298 229.498 69.9148 231.264 69.0199C233.029 68.1251 235.028 67.6839 237.046 67.7433C245.038 67.7434 250.306 73.5104 250.306 82.42ZM243.662 82.42C243.662 76.5986 240.368 72.7725 235.341 72.7725C230.402 72.7725 227.081 76.6793 227.081 82.42C227.081 88.2119 230.402 92.0907 235.341 92.0907C240.368 92.0906 243.662 88.2924 243.662 82.42V82.42Z" fill="white"/>
<path d="M273.212 85.8057C273.691 89.7156 277.852 92.2827 283.538 92.2827C288.986 92.2827 292.906 89.7154 292.906 86.1901C292.906 83.1298 290.542 81.2974 284.944 80.0416L279.347 78.8092C271.416 77.0606 267.734 73.6747 267.734 68.1805C267.734 61.3778 274.228 56.7053 283.449 56.7053C292.576 56.7053 298.832 61.3778 299.043 68.1805H292.518C292.128 64.2459 288.565 61.8708 283.358 61.8708C278.151 61.8708 274.588 64.2738 274.588 67.7712C274.588 70.5587 276.864 72.1989 282.431 73.4545L287.189 74.5211C296.051 76.4341 299.733 79.6851 299.733 85.4522C299.733 92.8284 293.296 97.4483 283.059 97.4483C273.481 97.4483 267.014 92.9369 266.596 85.8056L273.212 85.8057Z" fill="white"/>
<path d="M313.686 61.2414V68.0441H319.674V72.7167H313.686V88.5653C313.686 91.0271 314.885 92.1743 317.517 92.1743C318.228 92.163 318.938 92.1174 319.643 92.0378V96.6825C318.46 96.8843 317.257 96.9758 316.053 96.9553C309.678 96.9553 307.191 94.7694 307.191 89.1946V72.7167H302.613V68.0441H307.191V61.2414H313.686Z" fill="white"/>
<path d="M323.138 82.42C323.138 73.374 328.973 67.6907 338.073 67.6907C347.203 67.6907 353.011 73.3739 353.011 82.42C353.011 91.4892 347.233 97.1477 338.073 97.1477C328.916 97.1477 323.138 91.4891 323.138 82.42ZM346.425 82.42C346.425 76.2142 343.31 72.5524 338.073 72.5524C332.835 72.5524 329.724 76.2421 329.724 82.42C329.724 88.649 332.835 92.2829 338.073 92.2829C343.31 92.2829 346.425 88.649 346.425 82.42H346.425Z" fill="white"/>
<path d="M358.34 68.0441H364.505V72.9367H364.654C365.071 71.4087 366.052 70.0582 367.431 69.1124C368.811 68.1667 370.504 67.6832 372.228 67.7433C372.973 67.7409 373.716 67.8147 374.443 67.9634V73.4824C373.503 73.22 372.522 73.0996 371.539 73.1258C370.6 73.0911 369.663 73.2423 368.794 73.5691C367.925 73.8959 367.144 74.3905 366.504 75.0189C365.864 75.6474 365.381 76.3948 365.087 77.2099C364.794 78.025 364.697 78.8884 364.803 79.7409V96.791H358.34L358.34 68.0441Z" fill="white"/>
<path d="M404.241 88.3482C403.371 93.5665 397.804 97.1476 390.682 97.1476C381.521 97.1476 375.835 91.5449 375.835 82.5563C375.835 73.5383 381.552 67.6906 390.41 67.6906C399.122 67.6906 404.601 73.1538 404.601 81.8711V83.8927H382.36V84.2492C382.257 85.3071 382.403 86.3729 382.786 87.3757C383.169 88.3785 383.781 89.2953 384.583 90.0654C385.384 90.8355 386.355 91.4412 387.433 91.8422C388.51 92.2432 389.668 92.4304 390.831 92.3913C392.359 92.522 393.891 92.199 395.202 91.4706C396.512 90.7421 397.529 89.647 398.103 88.3482L404.241 88.3482ZM382.391 79.7688H398.134C398.192 78.8175 398.034 77.8655 397.67 76.9725C397.306 76.0795 396.744 75.2648 396.018 74.5796C395.293 73.8944 394.421 73.3535 393.455 72.9907C392.49 72.6279 391.453 72.4512 390.41 72.4716C389.357 72.466 388.314 72.6507 387.34 73.0151C386.366 73.3795 385.48 73.9164 384.735 74.5949C383.989 75.2733 383.398 76.0798 382.996 76.9678C382.593 77.8559 382.388 78.8079 382.391 79.7688V79.7688Z" fill="white"/>
</svg>
